<?xml version="1.0" standalone="no"?>
<!DOCTYPE svg PUBLIC "-//W3C//DTD SVG 20010904//EN"
 "http://www.w3.org/TR/2001/REC-SVG-20010904/DTD/svg10.dtd">
<svg version="1.0" xmlns="http://www.w3.org/2000/svg"
 width="505.000000pt" height="505.000000pt" viewBox="0 0 505.000000 505.000000"
 preserveAspectRatio="xMidYMid meet">
<metadata>
Created by potrace 1.14, written by Peter Selinger 2001-2017
</metadata>
<g transform="translate(0.000000,505.000000) scale(0.100000,-0.100000)"
fill="#000000" stroke="none">
<path d="M1023 5001 c-12 -19 -11 -344 1 -501 3 -36 8 -110 12 -165 9 -156 12
-187 18 -235 3 -25 8 -76 11 -115 3 -38 7 -86 10 -105 12 -91 20 -219 16 -257
-2 -28 -9 -24 -278 142 -26 17 -68 43 -93 58 -45 27 -185 97 -196 97 -3 0 -48
25 -99 56 -127 76 -138 72 -122 -42 3 -22 2 -45 -1 -50 -4 -5 -38 -9 -77 -10
-95 0 -159 -33 -123 -63 114 -93 148 -125 148 -139 0 -10 -22 -39 -50 -65 -27
-26 -50 -51 -50 -56 0 -8 33 -25 133 -71 59 -27 82 -60 185 -261 43 -85 90
-172 104 -194 43 -69 78 -143 78 -168 0 -13 -11 -52 -25 -88 -14 -35 -27 -73
-29 -84 -2 -11 -9 -40 -16 -65 -14 -53 -15 -57 -34 -180 -15 -98 -16 -387 -1
-520 7 -57 5 -72 -15 -110 -13 -25 -26 -47 -29 -50 -18 -13 -55 -92 -81 -169
-27 -79 -29 -96 -26 -206 3 -142 6 -158 53 -254 41 -85 136 -187 221 -236 34
-20 54 -39 58 -55 8 -32 56 -111 91 -150 27 -31 63 -40 63 -16 0 16 33 32 38
18 5 -17 45 -57 73 -74 34 -21 49 -10 52 38 1 21 6 44 10 51 8 13 42 6 71 -13
22 -15 58 -1 50 19 -7 20 -12 119 -7 134 8 20 47 15 63 -7 8 -11 18 -20 23
-20 4 0 17 -9 29 -20 11 -10 36 -26 54 -35 18 -8 36 -20 39 -25 6 -9 89 -49
101 -49 3 0 11 -6 17 -14 7 -8 38 -24 69 -36 42 -17 63 -33 83 -62 49 -76 181
-196 249 -229 35 -16 70 -30 77 -30 25 1 46 24 58 65 38 124 70 171 121 178
19 3 45 8 57 11 22 5 45 -15 112 -93 24 -28 77 -136 122 -250 17 -44 46 -96
64 -115 68 -75 201 -102 304 -64 31 12 62 27 69 35 7 7 17 13 21 13 12 0 123
89 161 129 55 58 110 128 110 140 0 6 5 11 10 11 6 0 13 8 17 17 3 10 11 25
18 33 18 23 62 149 74 210 15 78 20 203 9 253 -5 23 -9 50 -9 60 0 9 -4 17 -9
17 -5 0 -9 8 -8 18 0 9 -9 41 -20 69 l-20 53 32 32 c33 34 116 160 116 177 0
5 3 11 7 13 16 7 112 196 174 340 28 66 26 65 204 125 72 24 137 46 145 50 8
3 17 7 20 8 3 1 14 5 25 10 11 4 52 20 90 36 80 31 168 70 310 139 55 27 109
51 121 54 11 4 47 -5 83 -19 35 -15 66 -24 69 -20 3 3 7 36 8 73 1 37 3 73 3
80 1 7 22 22 49 33 103 44 142 63 142 70 0 10 -85 69 -99 69 -14 0 -54 22 -63
35 -4 5 7 24 24 42 16 17 28 36 24 41 -7 12 -101 37 -196 52 -41 7 -84 14 -95
16 -19 4 -88 10 -215 19 -30 2 -77 6 -105 9 -27 4 -79 9 -115 11 -88 7 -201
25 -222 37 -28 14 -21 52 15 86 28 27 153 135 317 272 29 25 58 50 64 55 6 6
36 30 66 55 30 25 60 50 66 55 6 6 34 28 62 50 29 21 52 43 52 47 0 4 5 8 10
8 6 0 23 12 38 28 15 15 45 42 67 61 36 31 124 109 244 217 25 22 59 52 75 65
105 86 129 118 89 120 -10 0 -27 3 -38 5 -80 18 -649 25 -920 11 -144 -8 -354
-11 -380 -7 -11 2 -62 0 -157 -5 -60 -4 -73 7 -45 37 36 38 117 153 117 166 0
12 -8 13 -37 8 -21 -4 -56 -9 -78 -11 -22 -2 -67 -7 -100 -10 -58 -6 -104 -12
-152 -20 -34 -5 -31 6 22 95 12 19 36 60 55 90 43 72 130 241 130 253 0 8 -31
7 -100 -6 -28 -4 -137 -35 -160 -44 -8 -3 -20 -7 -27 -8 -44 -10 -327 -112
-404 -146 -140 -62 -145 -63 -168 -31 -10 15 -21 37 -25 49 -10 31 -45 73 -62
73 -7 0 -28 -25 -45 -55 -34 -60 -50 -67 -83 -32 -12 12 -33 31 -47 43 -13 11
-50 49 -83 83 -32 34 -64 60 -70 58 -10 -3 -20 -59 -30 -165 -7 -87 -7 -87
-216 118 -104 102 -174 168 -378 355 -30 28 -68 64 -86 80 -117 112 -286 253
-326 273 -3 1 -11 -7 -17 -17z"/>
</g>
</svg>
