<?xml version="1.0" encoding="UTF-8"?>
<!DOCTYPE svg PUBLIC "-//W3C//DTD SVG 1.1//EN" "http://www.w3.org/Graphics/SVG/1.1/DTD/svg11.dtd">
<svg xmlns="http://www.w3.org/2000/svg" version="1.1" width="500px" height="500px" style="shape-rendering:geometricPrecision; text-rendering:geometricPrecision; image-rendering:optimizeQuality; fill-rule:evenodd; clip-rule:evenodd" xmlns:xlink="http://www.w3.org/1999/xlink">
<g><path style="opacity:0.569" fill="#6f4c4a" d="M 260.5,167.5 C 253.313,167.175 246.313,167.509 239.5,168.5C 236.833,168.5 234.167,168.5 231.5,168.5C 237.267,167.047 243.267,166.38 249.5,166.5C 253.349,166.501 257.016,166.835 260.5,167.5 Z"/></g>
<g><path style="opacity:1" fill="#a11315" d="M 239.5,169.5 C 239.5,169.167 239.5,168.833 239.5,168.5C 247.507,168.334 255.507,168.5 263.5,169C 266.31,169.782 268.977,170.616 271.5,171.5C 260.958,169.765 250.292,169.099 239.5,169.5 Z"/></g>
<g><path style="opacity:1" fill="#fb0605" d="M 239.5,170.5 C 248.956,170.21 258.29,170.876 267.5,172.5C 267.5,173.5 267.5,174.5 267.5,175.5C 269.167,175.5 270.833,175.5 272.5,175.5C 271.599,179.241 272.932,181.241 276.5,181.5C 276.302,183.575 276.135,185.575 276,187.5C 279.722,187.783 282.555,189.45 284.5,192.5C 283.652,194.409 283.318,196.409 283.5,198.5C 274.651,198.174 265.984,198.507 257.5,199.5C 256.4,200.605 255.733,201.938 255.5,203.5C 254.326,204.514 253.66,205.847 253.5,207.5C 252.069,208.78 251.402,210.447 251.5,212.5C 250.167,212.5 248.833,212.5 247.5,212.5C 247.737,211.209 247.404,210.209 246.5,209.5C 246.34,207.847 245.674,206.514 244.5,205.5C 243.475,201.573 242.808,197.573 242.5,193.5C 243.978,193.762 245.311,193.429 246.5,192.5C 245.18,186.193 242.513,180.526 238.5,175.5C 236.887,174.573 235.221,173.739 233.5,173C 234.056,172.617 234.389,172.117 234.5,171.5C 235.919,170.549 237.585,170.216 239.5,170.5 Z"/></g>
<g><path style="opacity:1" fill="#fb3233" d="M 234.5,171.5 C 234.389,172.117 234.056,172.617 233.5,173C 235.221,173.739 236.887,174.573 238.5,175.5C 242.513,180.526 245.18,186.193 246.5,192.5C 245.311,193.429 243.978,193.762 242.5,193.5C 242.808,197.573 243.475,201.573 244.5,205.5C 243.692,203.78 242.692,202.113 241.5,200.5C 241.672,199.508 241.338,198.842 240.5,198.5C 242.094,192.339 241.594,186.339 239,180.5C 236.195,177.347 232.695,175.681 228.5,175.5C 229.733,173.204 231.733,171.87 234.5,171.5 Z"/></g>
<g><path style="opacity:1" fill="#e30403" d="M 239.5,170.5 C 239.5,170.167 239.5,169.833 239.5,169.5C 250.292,169.099 260.958,169.765 271.5,171.5C 276.178,174.804 281.178,177.804 286.5,180.5C 288.703,182.295 289.869,184.629 290,187.5C 291.011,188.337 292.178,188.67 293.5,188.5C 293.898,194.387 296.731,198.721 302,201.5C 302.45,203.519 303.283,205.352 304.5,207C 303.446,208.388 303.28,209.888 304,211.5C 305.5,212.667 307,213.833 308.5,215C 308.043,215.414 307.709,215.914 307.5,216.5C 311.62,224.068 311.12,231.401 306,238.5C 304.741,243.818 304.241,249.152 304.5,254.5C 298.203,257.766 291.536,259.932 284.5,261C 282.161,262.343 279.828,263.676 277.5,265C 269.42,265.56 261.42,266.393 253.5,267.5C 256.358,266.834 259.358,266.167 262.5,265.5C 264.228,263.548 266.395,262.215 269,261.5C 269.945,261.905 270.612,262.572 271,263.5C 275.634,262.683 279.301,260.35 282,256.5C 283.811,255.922 285.645,255.422 287.5,255C 297.597,243.789 301.097,230.622 298,215.5C 295.755,210.003 292.755,205.003 289,200.5C 288.333,202.5 287,203.833 285,204.5C 284.106,206.979 283.773,209.312 284,211.5C 282.989,212.337 281.822,212.67 280.5,212.5C 280.585,214.929 281.585,216.929 283.5,218.5C 283.167,218.833 282.833,219.167 282.5,219.5C 281.833,218.833 281.167,218.167 280.5,217.5C 276.435,221.227 272.769,225.227 269.5,229.5C 270.508,227.456 271.508,225.456 272.5,223.5C 273.89,222.101 274.89,220.434 275.5,218.5C 276.906,218.027 277.573,217.027 277.5,215.5C 277.992,213.181 278.992,211.181 280.5,209.5C 282.922,206.584 284.588,203.251 285.5,199.5C 280.833,199.5 276.167,199.5 271.5,199.5C 266.833,199.5 262.167,199.5 257.5,199.5C 265.984,198.507 274.651,198.174 283.5,198.5C 283.318,196.409 283.652,194.409 284.5,192.5C 282.555,189.45 279.722,187.783 276,187.5C 276.135,185.575 276.302,183.575 276.5,181.5C 272.932,181.241 271.599,179.241 272.5,175.5C 270.833,175.5 269.167,175.5 267.5,175.5C 267.5,174.5 267.5,173.5 267.5,172.5C 258.29,170.876 248.956,170.21 239.5,170.5 Z"/></g>
<g><path style="opacity:1" fill="#df3534" d="M 239.5,169.5 C 239.5,169.833 239.5,170.167 239.5,170.5C 237.585,170.216 235.919,170.549 234.5,171.5C 231.733,171.87 229.733,173.204 228.5,175.5C 225.594,175.916 222.761,176.582 220,177.5C 218.439,177.397 216.939,177.063 215.5,176.5C 212.473,178.529 209.14,179.529 205.5,179.5C 215.695,172.782 227.028,169.449 239.5,169.5 Z"/></g>
<g><path style="opacity:1" fill="#9f0f13" d="M 280.5,173.5 C 286.793,175.319 292.793,177.819 298.5,181C 301.355,183.031 304.022,185.197 306.5,187.5C 303.167,186.167 299.833,184.833 296.5,183.5C 291.262,179.981 285.929,176.647 280.5,173.5 Z"/></g>
<g><path style="opacity:1" fill="#f95858" d="M 237.5,198.5 C 236.503,198.53 235.836,198.03 235.5,197C 238.813,190.608 237.146,185.941 230.5,183C 224.832,182.866 219.165,183.199 213.5,184C 210.848,184.353 208.848,185.52 207.5,187.5C 206.833,187.5 206.167,187.5 205.5,187.5C 198.248,188.79 192.248,192.123 187.5,197.5C 183.098,198.402 180.598,201.068 180,205.5C 174.927,209.644 171.927,214.977 171,221.5C 170.241,224.626 169.741,227.793 169.5,231C 171.075,237.13 172.408,243.297 173.5,249.5C 176.359,249.592 178.859,249.925 181,250.5C 187.705,248.292 193.872,245.125 199.5,241C 205.591,233.786 211.924,226.786 218.5,220C 221.294,219.028 223.294,219.861 224.5,222.5C 222.801,222.34 221.134,222.506 219.5,223C 215.646,228.355 210.979,232.855 205.5,236.5C 204.82,237.86 204.153,239.193 203.5,240.5C 199.749,243.747 196.083,247.247 192.5,251C 189.98,251.421 187.98,252.588 186.5,254.5C 183.715,255.306 180.881,255.972 178,256.5C 165.814,256.639 160.814,250.639 163,238.5C 164.294,233.916 166.127,229.582 168.5,225.5C 169.521,221.474 170.521,217.474 171.5,213.5C 170.5,213.5 169.5,213.5 168.5,213.5C 171.596,207.908 175.262,202.742 179.5,198C 186.151,193.013 192.485,187.68 198.5,182C 199.793,181.51 201.127,181.343 202.5,181.5C 201.71,182.794 200.71,183.961 199.5,185C 199.833,185.167 200.167,185.333 200.5,185.5C 210.544,179.623 221.211,177.79 232.5,180C 234.754,181.377 236.92,182.877 239,184.5C 239.167,186.167 239.333,187.833 239.5,189.5C 238.954,192.566 238.288,195.566 237.5,198.5 Z"/></g>
<g><path style="opacity:1" fill="#fb7272" d="M 237.5,198.5 C 238.5,198.5 239.5,198.5 240.5,198.5C 241.338,198.842 241.672,199.508 241.5,200.5C 236.93,199.559 232.263,199.226 227.5,199.5C 226.432,198.566 225.099,198.232 223.5,198.5C 221.708,197.691 219.708,197.191 217.5,197C 219.835,194.697 219.835,192.197 217.5,189.5C 214.346,187.974 211.013,187.307 207.5,187.5C 208.848,185.52 210.848,184.353 213.5,184C 219.165,183.199 224.832,182.866 230.5,183C 237.146,185.941 238.813,190.608 235.5,197C 235.836,198.03 236.503,198.53 237.5,198.5 Z"/></g>
<g><path style="opacity:1" fill="#fb4846" d="M 228.5,175.5 C 232.695,175.681 236.195,177.347 239,180.5C 241.594,186.339 242.094,192.339 240.5,198.5C 239.5,198.5 238.5,198.5 237.5,198.5C 238.288,195.566 238.954,192.566 239.5,189.5C 239.333,187.833 239.167,186.167 239,184.5C 236.92,182.877 234.754,181.377 232.5,180C 221.211,177.79 210.544,179.623 200.5,185.5C 200.167,185.333 199.833,185.167 199.5,185C 200.71,183.961 201.71,182.794 202.5,181.5C 202.973,180.094 203.973,179.427 205.5,179.5C 209.14,179.529 212.473,178.529 215.5,176.5C 216.939,177.063 218.439,177.397 220,177.5C 222.761,176.582 225.594,175.916 228.5,175.5 Z"/></g>
<g><path style="opacity:1" fill="#fd8280" d="M 205.5,187.5 C 206.167,187.5 206.833,187.5 207.5,187.5C 211.013,187.307 214.346,187.974 217.5,189.5C 219.835,192.197 219.835,194.697 217.5,197C 219.708,197.191 221.708,197.691 223.5,198.5C 218.175,199.694 214.175,198.028 211.5,193.5C 210.554,193.013 209.554,192.68 208.5,192.5C 205.949,193.359 203.449,194.359 201,195.5C 195.573,200.127 189.74,204.127 183.5,207.5C 183.343,206.127 183.51,204.793 184,203.5C 186.192,202.601 188.358,201.601 190.5,200.5C 191.386,199.675 191.719,198.675 191.5,197.5C 197.561,196.104 202.228,192.771 205.5,187.5 Z"/></g>
<g><path style="opacity:1" fill="#d40102" d="M 271.5,171.5 C 274.539,172.01 277.539,172.677 280.5,173.5C 285.929,176.647 291.262,179.981 296.5,183.5C 295.545,185.71 294.045,186.043 292,184.5C 291.383,185.449 291.549,186.282 292.5,187C 294.676,187.163 296.509,187.996 298,189.5C 298.333,188.833 298.667,188.167 299,187.5C 303.489,187.313 306.989,189.313 309.5,193.5C 307.5,194.333 305.5,195.167 303.5,196C 305.734,196.969 307.734,198.302 309.5,200C 306.439,204.839 307.272,206.006 312,203.5C 312.496,205.035 312.33,206.535 311.5,208C 313.717,209.708 314.383,211.708 313.5,214C 315.348,221.741 315.848,229.574 315,237.5C 314.439,240.29 313.106,242.623 311,244.5C 311.877,251.588 309.043,256.422 302.5,259C 297.604,260.713 292.604,262.046 287.5,263C 284.221,265.223 280.721,267.057 277,268.5C 274.119,266.849 271.952,267.516 270.5,270.5C 268.929,269.691 267.262,269.357 265.5,269.5C 258.87,268.454 252.203,268.287 245.5,269C 243.509,269.374 241.842,270.207 240.5,271.5C 239.833,271.5 239.167,271.5 238.5,271.5C 238.926,269.715 240.092,268.715 242,268.5C 245.792,267.69 249.625,267.356 253.5,267.5C 261.42,266.393 269.42,265.56 277.5,265C 279.828,263.676 282.161,262.343 284.5,261C 291.536,259.932 298.203,257.766 304.5,254.5C 304.241,249.152 304.741,243.818 306,238.5C 311.12,231.401 311.62,224.068 307.5,216.5C 307.709,215.914 308.043,215.414 308.5,215C 307,213.833 305.5,212.667 304,211.5C 303.28,209.888 303.446,208.388 304.5,207C 303.283,205.352 302.45,203.519 302,201.5C 296.731,198.721 293.898,194.387 293.5,188.5C 292.178,188.67 291.011,188.337 290,187.5C 289.869,184.629 288.703,182.295 286.5,180.5C 281.178,177.804 276.178,174.804 271.5,171.5 Z"/></g>
<g><path style="opacity:1" fill="#7f0e0f" d="M 311.5,191.5 C 313.298,193.112 315.298,194.612 317.5,196C 319.79,197.777 321.457,199.944 322.5,202.5C 319.786,199.785 316.786,197.451 313.5,195.5C 312.326,194.486 311.66,193.153 311.5,191.5 Z"/></g>
<g><path style="opacity:1" fill="#908663" d="M 271.5,200.5 C 271.5,200.167 271.5,199.833 271.5,199.5C 276.167,199.5 280.833,199.5 285.5,199.5C 284.588,203.251 282.922,206.584 280.5,209.5C 281.569,206.74 282.569,203.907 283.5,201C 279.514,200.501 275.514,200.334 271.5,200.5 Z"/></g>
<g><path style="opacity:1" fill="#70a681" d="M 227.5,199.5 C 227.5,200.167 227.833,200.5 228.5,200.5C 228.5,201.167 228.5,201.833 228.5,202.5C 224.566,201.64 220.566,201.307 216.5,201.5C 216.5,202.833 216.5,204.167 216.5,205.5C 215.833,204.5 215.167,203.5 214.5,202.5C 213.596,201.791 213.263,200.791 213.5,199.5C 218.167,199.5 222.833,199.5 227.5,199.5 Z"/></g>
<g><path style="opacity:1" fill="#933331" d="M 257.5,199.5 C 262.167,199.5 266.833,199.5 271.5,199.5C 271.5,199.833 271.5,200.167 271.5,200.5C 270.833,200.5 270.167,200.5 269.5,200.5C 265.818,200.335 262.152,200.501 258.5,201C 257.627,202.045 256.627,202.878 255.5,203.5C 255.733,201.938 256.4,200.605 257.5,199.5 Z"/></g>
<g><path style="opacity:1" fill="#45b782" d="M 228.5,202.5 C 228.201,204.604 228.534,206.604 229.5,208.5C 232.903,210.795 233.07,213.128 230,215.5C 229.667,217.167 229.333,218.833 229,220.5C 227.855,221.684 226.688,221.684 225.5,220.5C 224.5,220.167 223.833,219.5 223.5,218.5C 222.435,213.362 220.101,209.029 216.5,205.5C 216.5,204.167 216.5,202.833 216.5,201.5C 220.566,201.307 224.566,201.64 228.5,202.5 Z"/></g>
<g><path style="opacity:1" fill="#c30101" d="M 296.5,183.5 C 299.833,184.833 303.167,186.167 306.5,187.5C 308.754,188.124 310.421,189.457 311.5,191.5C 311.66,193.153 312.326,194.486 313.5,195.5C 313.369,196.239 313.536,196.906 314,197.5C 316.925,199.714 319.759,202.047 322.5,204.5C 323.865,207.687 324.699,211.02 325,214.5C 325.605,212.519 326.605,212.185 328,213.5C 330.997,218.74 334.163,223.74 337.5,228.5C 338.901,231.704 339.901,235.037 340.5,238.5C 341.759,245.445 342.259,252.445 342,259.5C 340.207,262.295 338.04,264.795 335.5,267C 329.213,270.66 322.88,274.327 316.5,278C 315.29,279.039 314.29,280.206 313.5,281.5C 304.119,282.669 294.952,284.669 286,287.5C 283.657,286.526 281.491,285.192 279.5,283.5C 277.577,280.397 275.41,277.397 273,274.5C 270.942,273.771 269.109,272.771 267.5,271.5C 266.833,270.833 266.167,270.167 265.5,269.5C 267.262,269.357 268.929,269.691 270.5,270.5C 271.952,267.516 274.119,266.849 277,268.5C 280.721,267.057 284.221,265.223 287.5,263C 292.604,262.046 297.604,260.713 302.5,259C 309.043,256.422 311.877,251.588 311,244.5C 313.106,242.623 314.439,240.29 315,237.5C 315.848,229.574 315.348,221.741 313.5,214C 314.383,211.708 313.717,209.708 311.5,208C 312.33,206.535 312.496,205.035 312,203.5C 307.272,206.006 306.439,204.839 309.5,200C 307.734,198.302 305.734,196.969 303.5,196C 305.5,195.167 307.5,194.333 309.5,193.5C 306.989,189.313 303.489,187.313 299,187.5C 298.667,188.167 298.333,188.833 298,189.5C 296.509,187.996 294.676,187.163 292.5,187C 291.549,186.282 291.383,185.449 292,184.5C 294.045,186.043 295.545,185.71 296.5,183.5 Z"/></g>
<g><path style="opacity:0.949" fill="#5a2421" d="M 231.5,168.5 C 234.167,168.5 236.833,168.5 239.5,168.5C 239.5,168.833 239.5,169.167 239.5,169.5C 227.028,169.449 215.695,172.782 205.5,179.5C 203.973,179.427 202.973,180.094 202.5,181.5C 201.127,181.343 199.793,181.51 198.5,182C 192.485,187.68 186.151,193.013 179.5,198C 175.262,202.742 171.596,207.908 168.5,213.5C 159.085,226.404 154.751,240.737 155.5,256.5C 155.833,257.5 156.5,258.167 157.5,258.5C 157.5,258.833 157.5,259.167 157.5,259.5C 158.415,261.754 159.748,263.754 161.5,265.5C 159.284,264.797 157.451,263.464 156,261.5C 154.525,258.878 153.359,256.212 152.5,253.5C 157.878,215.294 178.211,188.461 213.5,173C 219.365,170.867 225.365,169.367 231.5,168.5 Z"/></g>
<g><path style="opacity:1" fill="#fc9090" d="M 223.5,198.5 C 225.099,198.232 226.432,198.566 227.5,199.5C 222.833,199.5 218.167,199.5 213.5,199.5C 213.263,200.791 213.596,201.791 214.5,202.5C 215.162,206.82 217.162,210.487 220.5,213.5C 221.429,214.689 221.762,216.022 221.5,217.5C 220.833,217.5 220.5,217.167 220.5,216.5C 219.749,215.427 218.749,215.26 217.5,216C 210.88,222.738 203.713,228.905 196,234.5C 192.316,234.096 189.15,232.596 186.5,230C 184.457,226.747 182.29,223.58 180,220.5C 179.333,217.833 179.333,215.167 180,212.5C 181.669,211.154 182.836,209.487 183.5,207.5C 189.74,204.127 195.573,200.127 201,195.5C 203.449,194.359 205.949,193.359 208.5,192.5C 209.554,192.68 210.554,193.013 211.5,193.5C 214.175,198.028 218.175,199.694 223.5,198.5 Z"/></g>
<g><path style="opacity:1" fill="#4c4355" d="M 227.5,199.5 C 232.263,199.226 236.93,199.559 241.5,200.5C 242.692,202.113 243.692,203.78 244.5,205.5C 245.674,206.514 246.34,207.847 246.5,209.5C 246.5,210.833 246.5,212.167 246.5,213.5C 248.415,213.784 250.081,213.451 251.5,212.5C 251.402,210.447 252.069,208.78 253.5,207.5C 255.104,206.713 255.771,205.38 255.5,203.5C 256.627,202.878 257.627,202.045 258.5,201C 262.152,200.501 265.818,200.335 269.5,200.5C 266.359,201.321 263.025,201.821 259.5,202C 255.596,206.868 252.929,212.368 251.5,218.5C 250.325,218.719 249.325,218.386 248.5,217.5C 247.125,215.624 245.958,213.624 245,211.5C 244.174,213.405 243.007,213.739 241.5,212.5C 242.258,209.656 241.592,206.989 239.5,204.5C 239.833,203.833 240.167,203.167 240.5,202.5C 237.232,201.513 233.898,201.18 230.5,201.5C 230.158,200.662 229.492,200.328 228.5,200.5C 227.833,200.5 227.5,200.167 227.5,199.5 Z"/></g>
<g><path style="opacity:1" fill="#a80b0d" d="M 313.5,195.5 C 316.786,197.451 319.786,199.785 322.5,202.5C 329.011,209.515 334.011,217.515 337.5,226.5C 337.5,227.167 337.5,227.833 337.5,228.5C 334.163,223.74 330.997,218.74 328,213.5C 326.605,212.185 325.605,212.519 325,214.5C 324.699,211.02 323.865,207.687 322.5,204.5C 319.759,202.047 316.925,199.714 314,197.5C 313.536,196.906 313.369,196.239 313.5,195.5 Z"/></g>
<g><path style="opacity:1" fill="#fd8081" d="M 183.5,207.5 C 182.836,209.487 181.669,211.154 180,212.5C 179.333,215.167 179.333,217.833 180,220.5C 182.29,223.58 184.457,226.747 186.5,230C 189.15,232.596 192.316,234.096 196,234.5C 203.713,228.905 210.88,222.738 217.5,216C 218.749,215.26 219.749,215.427 220.5,216.5C 214.687,223.146 208.354,229.312 201.5,235C 197.598,238.228 193.265,240.728 188.5,242.5C 186.247,241.747 184.413,240.414 183,238.5C 179.54,232.241 177.04,225.907 175.5,219.5C 176.21,216.327 177.377,213.327 179,210.5C 180.129,208.859 181.629,207.859 183.5,207.5 Z"/></g>
<g><path style="opacity:1" fill="#98a080" d="M 214.5,202.5 C 215.167,203.5 215.833,204.5 216.5,205.5C 220.101,209.029 222.435,213.362 223.5,218.5C 222.833,218.167 222.167,217.833 221.5,217.5C 221.762,216.022 221.429,214.689 220.5,213.5C 217.162,210.487 215.162,206.82 214.5,202.5 Z"/></g>
<g><path style="opacity:1" fill="#48b681" d="M 271.5,200.5 C 275.514,200.334 279.514,200.501 283.5,201C 282.569,203.907 281.569,206.74 280.5,209.5C 278.992,211.181 277.992,213.181 277.5,215.5C 276.094,215.973 275.427,216.973 275.5,218.5C 273.273,219.401 272.273,221.067 272.5,223.5C 271.508,225.456 270.508,227.456 269.5,229.5C 266.863,231.482 265.53,234.148 265.5,237.5C 264.167,237.5 263.5,238.167 263.5,239.5C 262.272,240.306 261.272,241.306 260.5,242.5C 259.5,242.5 258.5,242.5 257.5,242.5C 257.5,244.167 257.5,245.833 257.5,247.5C 253.843,247.12 252.843,248.453 254.5,251.5C 253.349,253.325 252.682,255.325 252.5,257.5C 251.662,257.842 251.328,258.508 251.5,259.5C 250.325,259.719 249.325,259.386 248.5,258.5C 247.94,256.146 247.273,253.813 246.5,251.5C 245.914,251.709 245.414,252.043 245,252.5C 241.583,249.53 241.75,246.864 245.5,244.5C 245.167,243.833 244.833,243.167 244.5,242.5C 246.512,240.659 248.845,239.659 251.5,239.5C 251.491,237.692 251.991,236.025 253,234.5C 254.31,231.873 255.977,229.54 258,227.5C 258.49,226.207 258.657,224.873 258.5,223.5C 262.033,215.369 266.366,207.702 271.5,200.5 Z"/></g>
<g><path style="opacity:1" fill="#33495d" d="M 269.5,200.5 C 270.167,200.5 270.833,200.5 271.5,200.5C 266.366,207.702 262.033,215.369 258.5,223.5C 255.674,226.484 253.341,229.817 251.5,233.5C 246.507,231.789 244.174,228.123 244.5,222.5C 243.5,222.5 242.5,222.5 241.5,222.5C 238.106,215.38 234.44,208.38 230.5,201.5C 233.898,201.18 237.232,201.513 240.5,202.5C 240.167,203.167 239.833,203.833 239.5,204.5C 241.592,206.989 242.258,209.656 241.5,212.5C 243.007,213.739 244.174,213.405 245,211.5C 245.958,213.624 247.125,215.624 248.5,217.5C 249.325,218.386 250.325,218.719 251.5,218.5C 252.929,212.368 255.596,206.868 259.5,202C 263.025,201.821 266.359,201.321 269.5,200.5 Z"/></g>
<g><path style="opacity:1" fill="#80323a" d="M 246.5,209.5 C 247.404,210.209 247.737,211.209 247.5,212.5C 248.833,212.5 250.167,212.5 251.5,212.5C 250.081,213.451 248.415,213.784 246.5,213.5C 246.5,212.167 246.5,210.833 246.5,209.5 Z"/></g>
<g><path style="opacity:1" fill="#9b2730" d="M 255.5,203.5 C 255.771,205.38 255.104,206.713 253.5,207.5C 253.66,205.847 254.326,204.514 255.5,203.5 Z"/></g>
<g><path style="opacity:1" fill="#a6593d" d="M 277.5,215.5 C 277.573,217.027 276.906,218.027 275.5,218.5C 275.427,216.973 276.094,215.973 277.5,215.5 Z"/></g>
<g><path style="opacity:1" fill="#a07457" d="M 275.5,218.5 C 274.89,220.434 273.89,222.101 272.5,223.5C 272.273,221.067 273.273,219.401 275.5,218.5 Z"/></g>
<g><path style="opacity:1" fill="#572623" d="M 239.5,168.5 C 246.313,167.509 253.313,167.175 260.5,167.5C 303.151,173.645 330.984,197.311 344,238.5C 347.011,249.85 347.844,261.183 346.5,272.5C 346.666,267.821 346.499,263.155 346,258.5C 345.617,259.056 345.117,259.389 344.5,259.5C 344.717,254.77 344.383,250.103 343.5,245.5C 342.888,238.639 340.888,232.306 337.5,226.5C 334.011,217.515 329.011,209.515 322.5,202.5C 321.457,199.944 319.79,197.777 317.5,196C 315.298,194.612 313.298,193.112 311.5,191.5C 310.421,189.457 308.754,188.124 306.5,187.5C 304.022,185.197 301.355,183.031 298.5,181C 292.793,177.819 286.793,175.319 280.5,173.5C 277.539,172.677 274.539,172.01 271.5,171.5C 268.977,170.616 266.31,169.782 263.5,169C 255.507,168.5 247.507,168.334 239.5,168.5 Z"/></g>
<g><path style="opacity:1" fill="#bb3236" d="M 168.5,213.5 C 165.949,220.271 163.116,226.938 160,233.5C 159.728,236.254 159.228,238.921 158.5,241.5C 156.44,246.27 155.44,251.27 155.5,256.5C 154.751,240.737 159.085,226.404 168.5,213.5 Z"/></g>
<g><path style="opacity:1" fill="#fc7270" d="M 205.5,187.5 C 202.228,192.771 197.561,196.104 191.5,197.5C 191.719,198.675 191.386,199.675 190.5,200.5C 188.358,201.601 186.192,202.601 184,203.5C 183.51,204.793 183.343,206.127 183.5,207.5C 181.629,207.859 180.129,208.859 179,210.5C 177.377,213.327 176.21,216.327 175.5,219.5C 177.04,225.907 179.54,232.241 183,238.5C 184.413,240.414 186.247,241.747 188.5,242.5C 193.265,240.728 197.598,238.228 201.5,235C 208.354,229.312 214.687,223.146 220.5,216.5C 220.5,217.167 220.833,217.5 221.5,217.5C 222.167,217.833 222.833,218.167 223.5,218.5C 223.833,219.5 224.5,220.167 225.5,220.5C 225.831,222.322 226.498,223.989 227.5,225.5C 225.5,225.5 224.5,224.5 224.5,222.5C 223.294,219.861 221.294,219.028 218.5,220C 211.924,226.786 205.591,233.786 199.5,241C 193.872,245.125 187.705,248.292 181,250.5C 178.859,249.925 176.359,249.592 173.5,249.5C 172.408,243.297 171.075,237.13 169.5,231C 169.741,227.793 170.241,224.626 171,221.5C 171.927,214.977 174.927,209.644 180,205.5C 180.598,201.068 183.098,198.402 187.5,197.5C 192.248,192.123 198.248,188.79 205.5,187.5 Z"/></g>
<g><path style="opacity:1" fill="#295455" d="M 228.5,200.5 C 229.492,200.328 230.158,200.662 230.5,201.5C 234.44,208.38 238.106,215.38 241.5,222.5C 242.5,222.5 243.5,222.5 244.5,222.5C 244.174,228.123 246.507,231.789 251.5,233.5C 251.316,236.173 250.149,236.84 248,235.5C 241.999,224.158 235.499,213.158 228.5,202.5C 228.5,201.833 228.5,201.167 228.5,200.5 Z"/></g>
<g><path style="opacity:1" fill="#f84948" d="M 168.5,213.5 C 169.5,213.5 170.5,213.5 171.5,213.5C 170.521,217.474 169.521,221.474 168.5,225.5C 166.127,229.582 164.294,233.916 163,238.5C 160.814,250.639 165.814,256.639 178,256.5C 180.881,255.972 183.715,255.306 186.5,254.5C 180.851,258.825 174.518,259.658 167.5,257C 165.131,254.701 162.964,252.201 161,249.5C 160.902,246.478 160.068,243.811 158.5,241.5C 159.228,238.921 159.728,236.254 160,233.5C 163.116,226.938 165.949,220.271 168.5,213.5 Z"/></g>
<g><path style="opacity:1" fill="#fb0202" d="M 253.5,267.5 C 249.625,267.356 245.792,267.69 242,268.5C 240.092,268.715 238.926,269.715 238.5,271.5C 235.35,271.882 232.683,273.216 230.5,275.5C 226.656,278.695 223.656,282.529 221.5,287C 218.833,287.667 216.167,287.667 213.5,287C 209.803,284.908 205.803,283.741 201.5,283.5C 200.167,283.5 198.833,283.5 197.5,283.5C 192.707,279.893 187.374,277.226 181.5,275.5C 179.575,273.244 177.241,271.411 174.5,270C 175.666,265.534 178.666,263.534 183.5,264C 186.436,262.351 189.436,260.851 192.5,259.5C 196.053,253.109 200.886,247.775 207,243.5C 209.755,239.071 212.921,234.904 216.5,231C 219.843,230.587 223.01,229.087 226,226.5C 226.759,228.063 227.926,229.063 229.5,229.5C 230.126,233.4 231.459,237.067 233.5,240.5C 238.047,248.151 242.714,255.651 247.5,263C 249.134,263.494 250.801,263.66 252.5,263.5C 252.517,261.435 252.85,259.435 253.5,257.5C 254.436,254.329 256.103,251.662 258.5,249.5C 261.166,246.836 262.832,243.503 263.5,239.5C 263.5,238.167 264.167,237.5 265.5,237.5C 268.407,235.685 269.741,233.019 269.5,229.5C 272.769,225.227 276.435,221.227 280.5,217.5C 281.167,218.167 281.833,218.833 282.5,219.5C 282.833,219.167 283.167,218.833 283.5,218.5C 281.585,216.929 280.585,214.929 280.5,212.5C 281.822,212.67 282.989,212.337 284,211.5C 283.773,209.312 284.106,206.979 285,204.5C 287,203.833 288.333,202.5 289,200.5C 292.755,205.003 295.755,210.003 298,215.5C 301.097,230.622 297.597,243.789 287.5,255C 285.645,255.422 283.811,255.922 282,256.5C 279.301,260.35 275.634,262.683 271,263.5C 270.612,262.572 269.945,261.905 269,261.5C 266.395,262.215 264.228,263.548 262.5,265.5C 259.358,266.167 256.358,266.834 253.5,267.5 Z"/></g>
<g><path style="opacity:1" fill="#7e0e0f" d="M 337.5,226.5 C 340.888,232.306 342.888,238.639 343.5,245.5C 341.98,243.412 340.98,241.078 340.5,238.5C 339.901,235.037 338.901,231.704 337.5,228.5C 337.5,227.833 337.5,227.167 337.5,226.5 Z"/></g>
<g><path style="opacity:1" fill="#ca3a26" d="M 269.5,229.5 C 269.741,233.019 268.407,235.685 265.5,237.5C 265.53,234.148 266.863,231.482 269.5,229.5 Z"/></g>
<g><path style="opacity:1" fill="#50ae82" d="M 228.5,202.5 C 235.499,213.158 241.999,224.158 248,235.5C 250.149,236.84 251.316,236.173 251.5,233.5C 253.341,229.817 255.674,226.484 258.5,223.5C 258.657,224.873 258.49,226.207 258,227.5C 255.977,229.54 254.31,231.873 253,234.5C 251.991,236.025 251.491,237.692 251.5,239.5C 248.845,239.659 246.512,240.659 244.5,242.5C 244.833,243.167 245.167,243.833 245.5,244.5C 241.75,246.864 241.583,249.53 245,252.5C 245.414,252.043 245.914,251.709 246.5,251.5C 247.273,253.813 247.94,256.146 248.5,258.5C 249.325,259.386 250.325,259.719 251.5,259.5C 251.489,261.686 250.489,262.519 248.5,262C 246.628,257.524 244.295,253.357 241.5,249.5C 241.573,247.973 240.906,246.973 239.5,246.5C 239.267,244.938 238.6,243.605 237.5,242.5C 237.443,241.391 237.11,240.391 236.5,239.5C 236.167,239.5 235.833,239.5 235.5,239.5C 233.858,235.879 231.858,232.546 229.5,229.5C 229.34,227.847 228.674,226.514 227.5,225.5C 226.498,223.989 225.831,222.322 225.5,220.5C 226.688,221.684 227.855,221.684 229,220.5C 229.333,218.833 229.667,217.167 230,215.5C 233.07,213.128 232.903,210.795 229.5,208.5C 228.534,206.604 228.201,204.604 228.5,202.5 Z"/></g>
<g><path style="opacity:1" fill="#40b982" d="M 236.5,239.5 C 236.219,233.43 234.552,227.763 231.5,222.5C 232.432,220.205 233.265,217.871 234,215.5C 238.342,221.824 242.175,228.324 245.5,235C 244,237.167 242.833,237 242,234.5C 241.104,237.025 241.604,239.192 243.5,241C 241.899,241.273 240.399,241.773 239,242.5C 238.764,240.881 237.931,239.881 236.5,239.5 Z"/></g>
<g><path style="opacity:1" fill="#d22e1b" d="M 229.5,229.5 C 231.858,232.546 233.858,235.879 235.5,239.5C 235.427,241.027 236.094,242.027 237.5,242.5C 238.6,243.605 239.267,244.938 239.5,246.5C 239.427,248.027 240.094,249.027 241.5,249.5C 244.295,253.357 246.628,257.524 248.5,262C 250.489,262.519 251.489,261.686 251.5,259.5C 251.328,258.508 251.662,257.842 252.5,257.5C 252.833,257.5 253.167,257.5 253.5,257.5C 252.85,259.435 252.517,261.435 252.5,263.5C 250.801,263.66 249.134,263.494 247.5,263C 242.714,255.651 238.047,248.151 233.5,240.5C 231.459,237.067 230.126,233.4 229.5,229.5 Z"/></g>
<g><path style="opacity:1" fill="#a55d46" d="M 235.5,239.5 C 235.833,239.5 236.167,239.5 236.5,239.5C 237.11,240.391 237.443,241.391 237.5,242.5C 236.094,242.027 235.427,241.027 235.5,239.5 Z"/></g>
<g><path style="opacity:1" fill="#fa1e1d" d="M 224.5,222.5 C 224.5,224.5 225.5,225.5 227.5,225.5C 228.674,226.514 229.34,227.847 229.5,229.5C 227.926,229.063 226.759,228.063 226,226.5C 223.01,229.087 219.843,230.587 216.5,231C 212.921,234.904 209.755,239.071 207,243.5C 200.886,247.775 196.053,253.109 192.5,259.5C 189.436,260.851 186.436,262.351 183.5,264C 178.666,263.534 175.666,265.534 174.5,270C 177.241,271.411 179.575,273.244 181.5,275.5C 172.688,271.349 164.688,266.016 157.5,259.5C 157.5,259.167 157.5,258.833 157.5,258.5C 156.089,255.676 156.255,253.01 158,250.5C 160.825,254.325 163.992,257.825 167.5,261C 184.604,263.278 196.604,256.444 203.5,240.5C 204.153,239.193 204.82,237.86 205.5,236.5C 210.979,232.855 215.646,228.355 219.5,223C 221.134,222.506 222.801,222.34 224.5,222.5 Z"/></g>
<g><path style="opacity:1" fill="#ad5744" d="M 239.5,246.5 C 240.906,246.973 241.573,247.973 241.5,249.5C 240.094,249.027 239.427,248.027 239.5,246.5 Z"/></g>
<g><path style="opacity:1" fill="#70a27a" d="M 260.5,242.5 C 260.122,244.921 259.455,247.254 258.5,249.5C 256.103,251.662 254.436,254.329 253.5,257.5C 253.167,257.5 252.833,257.5 252.5,257.5C 252.682,255.325 253.349,253.325 254.5,251.5C 252.843,248.453 253.843,247.12 257.5,247.5C 257.5,245.833 257.5,244.167 257.5,242.5C 258.5,242.5 259.5,242.5 260.5,242.5 Z"/></g>
<g><path style="opacity:1" fill="#c7341c" d="M 263.5,239.5 C 262.832,243.503 261.166,246.836 258.5,249.5C 259.455,247.254 260.122,244.921 260.5,242.5C 261.272,241.306 262.272,240.306 263.5,239.5 Z"/></g>
<g><path style="opacity:1" fill="#fa393a" d="M 203.5,240.5 C 196.604,256.444 184.604,263.278 167.5,261C 163.992,257.825 160.825,254.325 158,250.5C 156.255,253.01 156.089,255.676 157.5,258.5C 156.5,258.167 155.833,257.5 155.5,256.5C 155.44,251.27 156.44,246.27 158.5,241.5C 160.068,243.811 160.902,246.478 161,249.5C 162.964,252.201 165.131,254.701 167.5,257C 174.518,259.658 180.851,258.825 186.5,254.5C 187.98,252.588 189.98,251.421 192.5,251C 196.083,247.247 199.749,243.747 203.5,240.5 Z"/></g>
<g><path style="opacity:1" fill="#0c0808" d="M 152.5,253.5 C 153.359,256.212 154.525,258.878 156,261.5C 157.451,263.464 159.284,264.797 161.5,265.5C 171.941,274.332 183.941,280.332 197.5,283.5C 201.085,285.806 205.085,287.139 209.5,287.5C 211.042,288.301 212.708,288.634 214.5,288.5C 216.795,290.385 219.462,290.885 222.5,290C 223.252,289.329 223.586,288.496 223.5,287.5C 223.351,286.448 223.517,285.448 224,284.5C 226.69,282.973 228.857,280.973 230.5,278.5C 234.391,276.883 237.724,274.55 240.5,271.5C 241.833,271.5 243.167,271.5 244.5,271.5C 250.833,270.167 257.167,270.167 263.5,271.5C 265.533,274.013 268.199,275.513 271.5,276C 274.036,278.705 276.703,281.205 279.5,283.5C 280.136,285.795 281.469,287.461 283.5,288.5C 291.836,289.635 299.836,288.302 307.5,284.5C 309.819,284.008 311.819,283.008 313.5,281.5C 315.315,280.37 317.315,279.704 319.5,279.5C 325.514,277.165 330.848,273.831 335.5,269.5C 339.895,267.438 342.895,264.104 344.5,259.5C 345.117,259.389 345.617,259.056 346,258.5C 346.499,263.155 346.666,267.821 346.5,272.5C 346.658,275.902 346.324,279.236 345.5,282.5C 344.698,281.048 344.198,279.382 344,277.5C 343.283,278.044 342.783,278.711 342.5,279.5C 328.392,290.055 312.725,297.055 295.5,300.5C 293.585,300.216 291.919,300.549 290.5,301.5C 288.5,301.5 286.5,301.5 284.5,301.5C 280.801,322.018 268.467,331.518 247.5,330C 231.723,326.556 222.389,316.889 219.5,301C 199.961,298.375 181.627,292.375 164.5,283C 161,280.331 157.667,277.498 154.5,274.5C 153.833,274.833 153.167,275.167 152.5,275.5C 151.21,268.159 151.21,260.826 152.5,253.5 Z"/></g>
<g><path style="opacity:1" fill="#a10b10" d="M 265.5,269.5 C 266.167,270.167 266.833,270.833 267.5,271.5C 266.167,271.5 264.833,271.5 263.5,271.5C 263.082,270.778 262.416,270.278 261.5,270C 256.5,269.333 251.5,269.333 246.5,270C 245.584,270.278 244.918,270.778 244.5,271.5C 243.167,271.5 241.833,271.5 240.5,271.5C 241.842,270.207 243.509,269.374 245.5,269C 252.203,268.287 258.87,268.454 265.5,269.5 Z"/></g>
<g><path style="opacity:1" fill="#430203" d="M 344.5,259.5 C 342.895,264.104 339.895,267.438 335.5,269.5C 338.529,266.141 341.529,262.808 344.5,259.5 Z"/></g>
<g><path style="opacity:1" fill="#540204" d="M 263.5,271.5 C 257.167,270.167 250.833,270.167 244.5,271.5C 244.918,270.778 245.584,270.278 246.5,270C 251.5,269.333 256.5,269.333 261.5,270C 262.416,270.278 263.082,270.778 263.5,271.5 Z"/></g>
<g><path style="opacity:1" fill="#9f0e11" d="M 340.5,238.5 C 340.98,241.078 341.98,243.412 343.5,245.5C 344.383,250.103 344.717,254.77 344.5,259.5C 341.529,262.808 338.529,266.141 335.5,269.5C 329.822,272.336 324.489,275.669 319.5,279.5C 317.315,279.704 315.315,280.37 313.5,281.5C 314.29,280.206 315.29,279.039 316.5,278C 322.88,274.327 329.213,270.66 335.5,267C 338.04,264.795 340.207,262.295 342,259.5C 342.259,252.445 341.759,245.445 340.5,238.5 Z"/></g>
<g><path style="opacity:1" fill="#870b11" d="M 157.5,259.5 C 164.688,266.016 172.688,271.349 181.5,275.5C 187.374,277.226 192.707,279.893 197.5,283.5C 183.941,280.332 171.941,274.332 161.5,265.5C 159.748,263.754 158.415,261.754 157.5,259.5 Z"/></g>
<g><path style="opacity:1" fill="#590608" d="M 335.5,269.5 C 330.848,273.831 325.514,277.165 319.5,279.5C 324.489,275.669 329.822,272.336 335.5,269.5 Z"/></g>
<g><path style="opacity:1" fill="#5f050b" d="M 263.5,271.5 C 264.833,271.5 266.167,271.5 267.5,271.5C 269.109,272.771 270.942,273.771 273,274.5C 275.41,277.397 277.577,280.397 279.5,283.5C 276.703,281.205 274.036,278.705 271.5,276C 268.199,275.513 265.533,274.013 263.5,271.5 Z"/></g>
<g><path style="opacity:1" fill="#4f0404" d="M 238.5,271.5 C 239.167,271.5 239.833,271.5 240.5,271.5C 237.724,274.55 234.391,276.883 230.5,278.5C 232.553,275.446 235.219,273.113 238.5,271.5 Z"/></g>
<g><path style="opacity:1" fill="#fbfbfb" d="M 154.5,274.5 C 157.667,277.498 161,280.331 164.5,283C 181.627,292.375 199.961,298.375 219.5,301C 222.389,316.889 231.723,326.556 247.5,330C 268.467,331.518 280.801,322.018 284.5,301.5C 286.5,301.5 288.5,301.5 290.5,301.5C 296.023,300.537 298.523,302.871 298,308.5C 303.619,310.951 304.952,314.951 302,320.5C 300.514,324.263 297.847,326.929 294,328.5C 290.267,333.274 286.434,337.941 282.5,342.5C 277.425,345.697 272.758,349.364 268.5,353.5C 257.378,357.089 245.711,358.756 233.5,358.5C 194.284,350.788 168.784,327.788 157,289.5C 155.733,284.565 154.9,279.565 154.5,274.5 Z"/></g>
<g><path style="opacity:1" fill="#b11113" d="M 238.5,271.5 C 235.219,273.113 232.553,275.446 230.5,278.5C 228.857,280.973 226.69,282.973 224,284.5C 223.517,285.448 223.351,286.448 223.5,287.5C 220.609,288.403 217.609,288.736 214.5,288.5C 212.708,288.634 211.042,288.301 209.5,287.5C 206.746,286.359 204.079,285.025 201.5,283.5C 205.803,283.741 209.803,284.908 213.5,287C 216.167,287.667 218.833,287.667 221.5,287C 223.656,282.529 226.656,278.695 230.5,275.5C 232.683,273.216 235.35,271.882 238.5,271.5 Z"/></g>
<g><path style="opacity:1" fill="#434343" d="M 154.5,274.5 C 154.9,279.565 155.733,284.565 157,289.5C 168.784,327.788 194.284,350.788 233.5,358.5C 250.389,360.795 267.056,359.295 283.5,354C 287.507,352.663 291.173,350.83 294.5,348.5C 321.009,334.185 337.343,312.185 343.5,282.5C 343.48,281.274 343.147,280.274 342.5,279.5C 342.783,278.711 343.283,278.044 344,277.5C 344.198,279.382 344.698,281.048 345.5,282.5C 335.425,326.075 308.425,352.241 264.5,361C 209.858,365.312 173.358,341.812 155,290.5C 153.842,285.543 153.008,280.543 152.5,275.5C 153.167,275.167 153.833,274.833 154.5,274.5 Z"/></g>
<g><path style="opacity:1" fill="#dadada" d="M 294.5,348.5 C 291.173,350.83 287.507,352.663 283.5,354C 267.056,359.295 250.389,360.795 233.5,358.5C 245.711,358.756 257.378,357.089 268.5,353.5C 270.137,354.218 271.803,354.384 273.5,354C 285.592,345.243 296.426,335.076 306,323.5C 307.198,320.45 308.365,317.45 309.5,314.5C 308.754,310.868 308.421,307.202 308.5,303.5C 305.402,303.587 305.068,303.087 307.5,302C 306.529,300.959 305.529,300.126 304.5,299.5C 308.893,296.468 312.226,296.801 314.5,300.5C 314.566,318.542 307.9,333.709 294.5,346C 295.598,346.77 295.598,347.603 294.5,348.5 Z"/></g>
<g><path style="opacity:1" fill="#edeeed" d="M 304.5,299.5 C 305.529,300.126 306.529,300.959 307.5,302C 305.068,303.087 305.402,303.587 308.5,303.5C 308.421,307.202 308.754,310.868 309.5,314.5C 308.365,317.45 307.198,320.45 306,323.5C 296.426,335.076 285.592,345.243 273.5,354C 271.803,354.384 270.137,354.218 268.5,353.5C 272.758,349.364 277.425,345.697 282.5,342.5C 286.434,337.941 290.267,333.274 294,328.5C 297.847,326.929 300.514,324.263 302,320.5C 304.952,314.951 303.619,310.951 298,308.5C 298.523,302.871 296.023,300.537 290.5,301.5C 291.919,300.549 293.585,300.216 295.5,300.5C 297.199,300.62 298.865,300.954 300.5,301.5C 301.006,300.176 302.339,299.509 304.5,299.5 Z"/></g>
<g><path style="opacity:1" fill="#373837" d="M 248.5,286.5 C 258.062,284.995 265.229,288.328 270,296.5C 270.951,305.605 267.118,311.605 258.5,314.5C 248.35,316.797 240.85,313.464 236,304.5C 234.44,294.641 238.607,288.641 248.5,286.5 Z"/></g>
<g><path style="opacity:1" fill="#cdcdcd" d="M 246.5,289.5 C 252.213,287.949 257.88,288.449 263.5,291C 268.63,295.218 269.796,300.384 267,306.5C 265.062,309.106 262.562,310.939 259.5,312C 254.833,312.667 250.167,312.667 245.5,312C 243.34,311.004 241.673,309.504 240.5,307.5C 242.199,307.34 243.866,307.506 245.5,308C 244.549,308.718 244.383,309.551 245,310.5C 248.325,309.056 251.825,308.056 255.5,307.5C 255.998,305.336 257.164,303.669 259,302.5C 259.667,299.5 259.667,296.5 259,293.5C 257.745,292.789 256.579,291.956 255.5,291C 255.833,290.667 256.167,290.333 256.5,290C 253.183,289.502 249.85,289.335 246.5,289.5 Z"/></g>
<g><path style="opacity:1" fill="#e2e2e2" d="M 248.5,286.5 C 238.607,288.641 234.44,294.641 236,304.5C 240.85,313.464 248.35,316.797 258.5,314.5C 259.239,314.369 259.906,314.536 260.5,315C 259.429,315.852 258.429,316.685 257.5,317.5C 239.916,319.745 231.416,312.078 232,294.5C 234.507,288.819 238.674,285.152 244.5,283.5C 247.872,282.599 251.205,282.599 254.5,283.5C 254.709,284.086 255.043,284.586 255.5,285C 252.964,285.186 250.631,285.686 248.5,286.5 Z"/></g>
<g><path style="opacity:1" fill="#f8f8f8" d="M 246.5,289.5 C 249.85,289.335 253.183,289.502 256.5,290C 256.167,290.333 255.833,290.667 255.5,291C 256.579,291.956 257.745,292.789 259,293.5C 259.667,296.5 259.667,299.5 259,302.5C 257.164,303.669 255.998,305.336 255.5,307.5C 251.825,308.056 248.325,309.056 245,310.5C 244.383,309.551 244.549,308.718 245.5,308C 243.866,307.506 242.199,307.34 240.5,307.5C 235,299.098 237,293.098 246.5,289.5 Z"/></g>
<g><path style="opacity:1" fill="#500307" d="M 307.5,284.5 C 299.836,288.302 291.836,289.635 283.5,288.5C 291.642,287.795 299.642,286.461 307.5,284.5 Z"/></g>
<g><path style="opacity:1" fill="#c0c0c0" d="M 257.5,317.5 C 258.429,316.685 259.429,315.852 260.5,315C 259.906,314.536 259.239,314.369 258.5,314.5C 267.118,311.605 270.951,305.605 270,296.5C 265.229,288.328 258.062,284.995 248.5,286.5C 250.631,285.686 252.964,285.186 255.5,285C 255.043,284.586 254.709,284.086 254.5,283.5C 251.205,282.599 247.872,282.599 244.5,283.5C 252.598,280.592 260.265,281.758 267.5,287C 275.683,296.218 275.349,305.218 266.5,314C 263.691,315.741 260.691,316.908 257.5,317.5 Z"/></g>
<g><path style="opacity:1" fill="#740b0e" d="M 223.5,287.5 C 223.586,288.496 223.252,289.329 222.5,290C 219.462,290.885 216.795,290.385 214.5,288.5C 217.609,288.736 220.609,288.403 223.5,287.5 Z"/></g>
<g><path style="opacity:1" fill="#cccccc" d="M 342.5,279.5 C 343.147,280.274 343.48,281.274 343.5,282.5C 337.343,312.185 321.009,334.185 294.5,348.5C 295.598,347.603 295.598,346.77 294.5,346C 307.9,333.709 314.566,318.542 314.5,300.5C 312.226,296.801 308.893,296.468 304.5,299.5C 302.339,299.509 301.006,300.176 300.5,301.5C 298.865,300.954 297.199,300.62 295.5,300.5C 312.725,297.055 328.392,290.055 342.5,279.5 Z"/></g>
<g><path style="opacity:1" fill="#940d10" d="M 313.5,281.5 C 311.819,283.008 309.819,284.008 307.5,284.5C 299.642,286.461 291.642,287.795 283.5,288.5C 281.469,287.461 280.136,285.795 279.5,283.5C 281.491,285.192 283.657,286.526 286,287.5C 294.952,284.669 304.119,282.669 313.5,281.5 Z"/></g>
<g><path style="opacity:1" fill="#600405" d="M 197.5,283.5 C 198.833,283.5 200.167,283.5 201.5,283.5C 204.079,285.025 206.746,286.359 209.5,287.5C 205.085,287.139 201.085,285.806 197.5,283.5 Z"/></g>
</svg>
